<?xml version="1.0" encoding="utf-8"?>
<!-- Generator: Adobe Illustrator 16.0.0, SVG Export Plug-In . SVG Version: 6.00 Build 0)  -->
<!DOCTYPE svg PUBLIC "-//W3C//DTD SVG 1.1//EN" "http://www.w3.org/Graphics/SVG/1.1/DTD/svg11.dtd">
<svg version="1.1" id="Layer_1" xmlns="http://www.w3.org/2000/svg" xmlns:xlink="http://www.w3.org/1999/xlink" x="0px" y="0px"
	 width="841.89px" height="187px" viewBox="0 0 841.89 187" enable-background="new 0 0 841.89 187" xml:space="preserve">
<g>
	<g>
		<g>
			<path fill="#5A99D0" d="M147.929,135.547c-0.614-10.184-1.328-18.325-2.15-24.448c5.366,2.397,10.139,4.06,14.331,4.981
				c4.203,0.934,7.868,1.404,11.028,1.404c4.17,0,7.495-0.614,9.963-1.827c2.458-1.218,3.687-3.022,3.687-5.415
				c0-0.812-0.109-1.591-0.351-2.337c-0.241-0.735-0.702-1.58-1.361-2.502c-0.68-0.944-1.634-1.964-2.886-3.045l-13.497-11.758
				c-3.171-2.688-5.377-4.63-6.628-5.827c-2.535-2.436-4.51-4.701-5.925-6.803c-1.416-2.106-2.436-4.247-3.083-6.419
				c-0.648-2.184-0.966-4.477-0.966-6.924c0-2.908,0.505-5.772,1.536-8.57c1.031-2.798,2.567-5.41,4.631-7.845
				c2.052-2.447,4.773-4.543,8.164-6.321c3.401-1.756,7.033-2.974,10.907-3.621c3.874-0.637,7.868-0.955,11.972-0.955
				c8.077,0,16.876,0.932,26.391,2.787c0.143,3.303,0.307,6.321,0.505,9.075c0.187,2.754,0.647,7.577,1.36,14.44
				c-4.4-1.756-8.416-2.996-12.038-3.682c-3.654-0.702-6.771-1.047-9.404-1.047c-3.72,0-6.825,0.702-9.284,2.084
				c-2.469,1.388-3.698,3.105-3.698,5.169c0,0.955,0.198,1.887,0.57,2.798c0.384,0.916,1.108,1.964,2.162,3.182
				c1.042,1.229,2.436,2.562,4.159,4.016c1.723,1.459,4.412,3.621,8.099,6.497l5.168,4.087c1.525,1.234,3.171,2.749,4.938,4.515
				c1.767,1.767,3.303,3.512,4.598,5.234c1.284,1.723,2.282,3.292,2.962,4.729c0.703,1.438,1.218,2.875,1.547,4.346
				c0.34,1.442,0.516,3.018,0.516,4.696c0,4.301-1.042,8.412-3.095,12.29c-2.052,3.907-4.97,7.111-8.745,9.612
				c-3.775,2.519-7.923,4.27-12.444,5.268c-4.51,1.01-9.283,1.515-14.31,1.515C169.525,138.927,159.737,137.797,147.929,135.547z"/>
			<path fill="#5A99D0" d="M228.966,137.061l1.284-15.439l2.776-53.593l0.779-28.859c6.65,0.099,11.654,0.143,15.012,0.143
				c4.356,0,9.163-0.044,14.418-0.143l-1.624,22.023l-2.645,54.208l-0.56,21.66c-5.125-0.043-9.744-0.07-13.87-0.07L228.966,137.061
				z"/>
			<path fill="#5A99D0" d="M281.32,84.708c0.9-4.73,1.481-8,1.723-9.782c0.241-1.789,0.615-4.598,1.141-8.428
				c13.772-3.006,25.601-4.509,35.499-4.509c5.641,0,10.809,0.62,15.494,1.893c4.686,1.262,8.34,3.303,10.973,6.134
				c2.634,2.82,3.951,6.863,3.951,12.12c0,2.661-0.362,8.691-1.076,18.073c-0.713,9.366-1.273,21.645-1.646,36.853
				c-4.686-0.099-9.349-0.142-13.991-0.142c-4.5,0-9.284,0.043-14.354,0.142c0.659-5.256,1.372-16.119,2.173-32.552
				c-1.811,0.851-3.237,1.476-4.258,1.866c-1.02,0.373-2.831,0.95-5.399,1.707c-2.579,0.779-4.598,1.416-6.057,1.947
				c-1.448,0.521-2.71,1.19-3.786,2.003c-1.064,0.823-1.833,1.651-2.283,2.513c-0.46,0.856-0.68,1.811-0.68,2.864
				c0,1.624,0.636,3.012,1.931,4.159c1.294,1.151,3.347,1.723,6.167,1.723c0.999,0,2.084-0.088,3.237-0.247
				c1.141-0.17,2.722-0.604,4.719-1.256c-1.383,3.691-3.04,9.052-4.938,16.13c-4.115,0.675-8.011,1.01-11.698,1.01
				c-5.925,0-10.853-0.834-14.803-2.48c-3.95-1.646-6.979-4.313-9.108-7.988c-2.129-3.688-3.193-7.374-3.193-11.05
				c0-2.25,0.396-4.455,1.186-6.595c0.79-2.151,2.019-4.241,3.687-6.305c1.668-2.063,3.632-3.813,5.892-5.272
				c2.228-1.465,5.312-2.842,9.207-4.126c3.896-1.295,8.822-2.513,14.803-3.665c2.49-0.472,4.75-0.981,6.847-1.542
				c2.074-0.554,3.555-1.026,4.433-1.416c0.878-0.422,1.602-0.894,2.162-1.443c0.549-0.56,0.933-1.13,1.174-1.728
				c0.241-0.609,0.351-1.218,0.351-1.888c0-1.827-0.757-3.231-2.282-4.203c-1.525-0.981-3.775-1.476-6.749-1.476
				C303.552,77.751,293.413,80.072,281.32,84.708z"/>
			<path fill="#5A99D0" d="M424.598,114.182c-0.242,1.909-0.813,5.421-1.724,10.551l-1.865,11.462
				c-7.505,1.827-14.847,2.732-22.012,2.732c-5.212,0-9.777-0.521-13.695-1.581c-4.642-1.239-8.8-3.429-12.476-6.605
				c-3.775-3.236-6.529-7.088-8.241-11.527c-2.063-5.217-3.094-11.05-3.094-17.507c0-5.926,0.999-11.643,3.018-17.14
				c1.998-5.498,4.971-10.024,8.888-13.59c3.928-3.556,8.274-5.953,13.047-7.171c4.784-1.218,10.062-1.815,15.856-1.815
				c3.39,0,6.803,0.169,10.249,0.532c3.445,0.351,7.692,1.13,12.762,2.326l0.153,1.651c0.132,1.717,0.253,3.473,0.329,5.273
				c0.055,1.789,0.209,4.636,0.449,8.493l0.429,6.386c-6.825-2.392-12.882-3.594-18.139-3.594c-3.775,0-7.088,0.73-9.931,2.189
				c-2.842,1.465-4.949,3.566-6.31,6.31c-1.372,2.754-2.041,5.947-2.041,9.585c0,3.682,0.604,6.754,1.821,9.234
				c1.229,2.491,3.171,4.356,5.849,5.597c2.678,1.251,5.619,1.877,8.823,1.877c1.624,0,3.543-0.165,5.771-0.511
				c2.216-0.335,4.159-0.708,5.816-1.103C419.977,115.817,422.051,115.137,424.598,114.182z"/>
			<path fill="#5A99D0" d="M437.436,137.061c0.658-6.111,1.142-11.083,1.415-14.912c0.384-5.212,0.758-11.736,1.142-19.576
				l0.79-16.998c0.329-7.703,0.571-15.055,0.713-22.083c0.187-8.422,0.285-16.531,0.285-24.322
				c6.694,0.099,11.709,0.143,15.066,0.143c3.874,0,8.472-0.044,13.793-0.143c-1.108,12.526-2.117,28.091-3.038,46.68
				c-0.911,18.6-1.373,35.673-1.373,51.211c-5.541-0.099-10.227-0.142-14.034-0.142
				C447.795,136.919,442.878,136.962,437.436,137.061z M469.049,95.857l12.346-17.75l9.25-14.271
				c6.595,0.099,11.588,0.143,14.989,0.143c4.686,0,10.228-0.044,16.636-0.143l-14.277,18.562
				c-3.346,4.251-6.759,8.838-10.248,13.754c3.347,6.167,11.401,19.806,24.163,40.908c-5.597-0.099-10.633-0.142-15.132-0.142
				c-4.587,0-9.854,0.043-15.779,0.142l-4.444-8.976c-1.581-3.105-2.941-5.717-4.083-7.813c-0.438-0.867-3.697-6.738-9.82-17.59
				L469.049,95.857z"/>
		</g>
		<g>
			<path fill="#96CA4C" d="M528.579,137.061l1.767-14.489l4.422-50.263l2.195-33.139c8.833,0.099,15.768,0.143,20.805,0.143
				c4.181,0,10.545-0.044,19.138-0.143c0.625,4.115,1.162,7.232,1.579,9.36c0.429,2.134,1.492,6.288,3.184,12.476
				c1.689,6.189,3.05,11.544,4.081,16.071c1.032,4.515,2.557,12.24,4.609,23.191c2.106-7.494,4.027-13.958,5.75-19.351
				c1.712-5.404,3.873-11.549,6.463-18.44c2.59-6.88,4.225-11.39,4.916-13.502c0.702-2.14,1.646-5.404,2.842-9.805
				c7.177,0.099,14.199,0.143,21.08,0.143c4.686,0,11.192-0.044,19.51-0.143c-0.91,16.12-1.514,29.957-1.799,41.523
				c-0.626,22.648-0.933,38.236-0.933,46.761c0,1.768,0.054,4.966,0.152,9.607c-6.319-0.099-10.742-0.147-13.276-0.147
				c-3.677,0-8.197,0.049-13.553,0.147c0.396-4.313,0.878-14.55,1.46-30.735c0.582-16.191,0.878-26.522,0.878-31.01
				c0-1.964-0.056-4.696-0.144-8.169l-9.414,29.184l-13.498,40.731c-6.21-0.099-10.49-0.147-12.849-0.147
				c-2.952,0-7.495,0.049-13.618,0.147l-8.833-39.448l-5.18-21.008c-0.187-0.806-0.417-1.816-0.647-3.006
				c-0.241-1.201-0.625-3.309-1.142-6.315l-1.81,19.862l-2.381,40.731l-0.231,9.185c-6.606-0.099-10.797-0.147-12.607-0.147
				C539.003,136.913,534.702,136.962,528.579,137.061z"/>
			<path fill="#96CA4C" d="M671.362,84.708c0.899-4.73,1.471-8,1.7-9.782c0.253-1.789,0.626-4.598,1.164-8.428
				c13.761-3.006,25.6-4.509,35.498-4.509c5.641,0,10.809,0.62,15.494,1.893c4.686,1.262,8.34,3.303,10.962,6.134
				c2.634,2.809,3.951,6.863,3.951,12.108c0,2.672-0.352,8.702-1.075,18.084c-0.714,9.366-1.263,21.645-1.636,36.853
				c-4.695-0.099-9.359-0.147-14.001-0.147c-4.489,0-9.272,0.049-14.354,0.147c0.658-5.256,1.383-16.119,2.184-32.552
				c-1.821,0.851-3.237,1.476-4.258,1.866c-1.031,0.373-2.83,0.95-5.409,1.707c-2.578,0.779-4.598,1.416-6.047,1.947
				c-1.448,0.521-2.71,1.19-3.786,2.003c-1.075,0.817-1.843,1.651-2.282,2.513c-0.46,0.856-0.69,1.811-0.69,2.864
				c0,1.624,0.646,3.012,1.931,4.159c1.306,1.151,3.357,1.723,6.179,1.723c0.998,0,2.073-0.088,3.226-0.247
				c1.141-0.17,2.722-0.604,4.729-1.256c-1.394,3.675-3.028,9.052-4.949,16.13c-4.115,0.675-7.999,1.01-11.686,1.01
				c-5.927,0-10.864-0.834-14.804-2.48c-3.95-1.646-6.99-4.313-9.108-7.988c-2.129-3.688-3.192-7.374-3.192-11.05
				c0-2.25,0.395-4.455,1.185-6.595c0.769-2.151,2.008-4.252,3.688-6.305c1.668-2.063,3.633-3.813,5.881-5.272
				c2.239-1.465,5.312-2.842,9.218-4.126c3.886-1.295,8.813-2.513,14.793-3.665c2.479-0.472,4.772-0.981,6.847-1.542
				c2.085-0.554,3.556-1.026,4.444-1.416c0.878-0.422,1.591-0.894,2.14-1.443c0.549-0.56,0.954-1.13,1.186-1.728
				c0.24-0.609,0.361-1.218,0.361-1.888c0-1.827-0.757-3.231-2.293-4.203c-1.525-0.981-3.775-1.476-6.737-1.476
				C693.594,77.751,683.444,80.072,671.362,84.708z"/>
			<path fill="#96CA4C" d="M751.379,170.623c0.911-9.805,1.668-19.576,2.294-29.338c1.107-16.679,1.854-30.67,2.261-41.983
				c0.395-11.302,0.604-22.495,0.604-33.6c9.711-1.465,17.304-2.469,22.813-2.968c5.497-0.499,10.994-0.746,16.491-0.746
				c6.881,0,13.223,0.708,19.018,2.134c5.771,1.432,10.413,3.972,13.936,7.61c3.512,3.644,6.156,7.956,7.923,12.976
				c1.767,5.025,2.655,10.282,2.655,15.774c0,5.02-0.713,9.881-2.15,14.589c-1.438,4.718-3.622,8.953-6.595,12.745
				c-2.963,3.77-6.364,6.562-10.217,8.378c-3.84,1.827-8.12,2.732-12.85,2.732c-2.337,0-4.763-0.23-7.275-0.691
				c-2.501-0.45-4.882-1.108-7.121-1.965c-2.25-0.86-4.126-1.733-5.629-2.611c-1.503-0.883-3.38-2.172-5.619-3.84l-0.801,20.01
				c-0.34,9.173-0.505,16.107-0.505,20.794c-5.563-0.099-10.325-0.148-14.286-0.148
				C762.868,170.475,757.897,170.524,751.379,170.623z M784.441,83.983c-0.384,2.167-0.658,3.918-0.79,5.268
				c-0.143,1.372-0.285,3.215-0.429,5.53c-0.152,2.332-0.229,4.17-0.229,5.553c0,3.928,0.626,7.22,1.833,9.865
				c1.217,2.656,2.919,4.708,5.091,6.167c2.184,1.46,4.51,2.195,7.001,2.195c2.623,0,5.037-0.752,7.253-2.255
				c2.184-1.503,3.939-3.77,5.224-6.787c1.295-3.007,1.942-6.409,1.942-10.184c0-5.113-1.361-9.217-4.061-12.323
				c-2.688-3.111-6.627-4.674-11.796-4.674C792.232,82.338,788.557,82.897,784.441,83.983z"/>
		</g>
	</g>
	<g>
		<path fill="#96CA4C" d="M50.202,110.067c0.286-0.192,0.637-0.362,0.966-0.587c2.535-1.701,3.522-3.5,4.455-6.935
			c0.966-3.566,3.391-5.832,5.596-8.521c1.712-2.08,1.361-5.92,2.195-8.894c1.174-4.181,2.469-8.339,3.95-12.399
			c1.087-2.963,1.13-5.959-1.141-7.846c-2.304-1.92-5.201,0.307-6.431,1.854c-4.104,5.179-10.961,7.16-13.968,13.491
			c-0.395,0.834-1.613,1.059-2.03,0.341c-0.395-0.675-0.417-2.146,0.043-2.7c4.434-5.503,8.165-11.505,14.31-15.587
			c3.215-2.129,5.421-6.315,8.668-9.075c1.021-0.867-0.943-2.645-1.657-3.989c-1.229-2.288-2.523-4.943-1.108-7.457
			c1.657-2.968,4.444-4.01,7.451-2.112c3.227,2.036,1.91,5.514,1.965,8.504c0,0.587-0.933,1.267,0.011,1.75
			c0.999,0.516,1.207-0.483,1.756-1.075c1.141-1.207,2.414-2.529,3.884-3.128c5.827-2.37,8.362-9.919,4.576-15.055
			c-1.909-2.601-0.955-5.059-0.702-7.626c0.022-0.236,0.845-0.632,1.207-0.538c1.602,0.384,2.48,1.799,2.776,3.221
			c0.571,2.694,0.658,5.498,1.097,8.219c0.439,2.639,0.725,4.724,0.318,7.407c-0.527,2.979-2.557,6.507-4.674,7.725
			c-4.499,2.601-2.7,9.246-2.316,15.166c0.494,7.615,3.83,16.455-4.048,22.874c-7.012,5.695-12.697,12.872-18.216,20.015
			c-0.164,0.208-1.514,1.657-1.657,1.86l59.102-17.508c3.325-7.099,5.475-15.494,5.574-23.855
			C122.592,33.024,95.378,6.397,62.35,6.397C29.32,6.397,1.7,33.814,2.535,67.606c0.23,9.097,2.765,18.632,6.66,26.05
			L50.202,110.067z"/>
		<polyline fill="#5A99D0" points="114.22,95.637 51.694,114.1 13.244,100.646 62.338,182.023 		"/>
	</g>
</g>
</svg>
