<?xml version="1.0" encoding="utf-8"?>
<!-- Generator: Adobe Illustrator 16.0.0, SVG Export Plug-In . SVG Version: 6.00 Build 0)  -->
<!DOCTYPE svg PUBLIC "-//W3C//DTD SVG 1.1//EN" "http://www.w3.org/Graphics/SVG/1.1/DTD/svg11.dtd">
<svg version="1.1" id="Layer_1" xmlns="http://www.w3.org/2000/svg" xmlns:xlink="http://www.w3.org/1999/xlink" x="0px" y="0px"
	 width="798px" height="187px" viewBox="0 0 798 187" enable-background="new 0 0 798 187" xml:space="preserve">
<g>
	<g>
		<g>
			<g>
				<g>
					<path fill="#5A99D0" d="M140.593,126.882c-0.588-9.661-1.26-17.393-2.041-23.202c5.091,2.276,9.63,3.859,13.586,4.728
						c3.999,0.885,7.486,1.332,10.479,1.332c3.956,0,7.106-0.578,9.449-1.734c2.336-1.155,3.502-2.862,3.502-5.137
						c0-0.766-0.109-1.509-0.333-2.213c-0.224-0.697-0.656-1.499-1.282-2.373c-0.65-0.896-1.571-1.858-2.748-2.895l-12.82-11.15
						c-3.004-2.556-5.091-4.394-6.267-5.527c-2.417-2.307-4.279-4.478-5.632-6.455c-1.344-2.004-2.312-4.03-2.936-6.09
						c-0.614-2.077-0.905-4.243-0.905-6.58c0-2.753,0.468-5.466,1.462-8.125c0.963-2.651,2.426-5.128,4.383-7.434
						c1.941-2.337,4.533-4.315,7.75-6.001c3.217-1.671,6.684-2.827,10.349-3.441c3.675-0.599,7.458-0.906,11.368-0.906
						c7.658,0,16.018,0.885,25.022,2.65c0.14,3.124,0.296,6.002,0.474,8.605c0.187,2.613,0.609,7.189,1.296,13.7
						c-4.165-1.66-7.985-2.836-11.416-3.498c-3.462-0.651-6.418-0.989-8.933-0.989c-3.523,0-6.464,0.672-8.802,1.978
						c-2.342,1.308-3.497,2.946-3.497,4.903c0,0.905,0.177,1.79,0.531,2.65c0.364,0.869,1.046,1.874,2.05,3.029
						c0.99,1.166,2.312,2.426,3.946,3.806c1.64,1.389,4.195,3.44,7.684,6.163l4.902,3.878c1.448,1.176,3.015,2.612,4.701,4.289
						c1.671,1.671,3.123,3.331,4.347,4.961c1.224,1.634,2.165,3.123,2.821,4.486c0.661,1.371,1.145,2.734,1.462,4.124
						c0.317,1.379,0.485,2.862,0.485,4.456c0,4.076-0.979,7.98-2.937,11.666c-1.947,3.711-4.716,6.739-8.298,9.12
						c-3.586,2.378-7.521,4.038-11.81,4.996c-4.274,0.954-8.803,1.438-13.561,1.438C161.07,130.088,151.784,129.015,140.593,126.882
						z"/>
					<path fill="#5A99D0" d="M217.471,128.317l1.218-14.653l2.639-50.847l0.74-27.384c6.303,0.093,11.056,0.145,14.236,0.145
						c4.133,0,8.698-0.051,13.69-0.145l-1.551,20.904l-2.499,51.435l-0.541,20.545c-4.857-0.046-9.24-0.082-13.165-0.082
						L217.471,128.317z"/>
					<path fill="#5A99D0" d="M267.141,78.642c0.859-4.491,1.405-7.589,1.64-9.286c0.224-1.696,0.587-4.362,1.083-8
						c13.055-2.843,24.289-4.28,33.679-4.28c5.361,0,10.249,0.604,14.705,1.806c4.446,1.203,7.902,3.134,10.412,5.82
						c2.487,2.675,3.738,6.501,3.738,11.499c0,2.524-0.334,8.25-1.032,17.146c-0.666,8.896-1.187,20.541-1.54,34.97
						c-4.457-0.094-8.881-0.141-13.275-0.141c-4.279,0-8.802,0.047-13.622,0.141c0.625-4.997,1.308-15.294,2.078-30.893
						c-1.734,0.812-3.077,1.415-4.056,1.769c-0.969,0.354-2.676,0.907-5.127,1.624c-2.452,0.745-4.346,1.344-5.736,1.839
						c-1.37,0.51-2.583,1.144-3.598,1.91c-1.015,0.775-1.744,1.568-2.166,2.378c-0.427,0.828-0.65,1.734-0.65,2.723
						c0,1.546,0.614,2.853,1.837,3.951c1.229,1.092,3.17,1.635,5.846,1.635c0.953,0,1.978-0.084,3.076-0.234
						c1.083-0.167,2.581-0.568,4.488-1.193c-1.317,3.505-2.884,8.59-4.701,15.294c-3.899,0.636-7.6,0.969-11.098,0.969
						c-5.622,0-10.302-0.792-14.033-2.359c-3.749-1.556-6.627-4.091-8.652-7.572c-2.014-3.499-3.019-7.002-3.019-10.489
						c0-2.128,0.37-4.229,1.125-6.258c0.738-2.034,1.905-4.028,3.497-5.984c1.578-1.958,3.442-3.618,5.586-4.998
						c2.118-1.39,5.033-2.697,8.729-3.909c3.701-1.239,8.37-2.395,14.05-3.478c2.357-0.448,4.512-0.943,6.491-1.473
						c1.968-0.516,3.373-0.969,4.205-1.342c0.849-0.391,1.52-0.839,2.051-1.37c0.521-0.525,0.896-1.072,1.13-1.634
						c0.224-0.579,0.333-1.156,0.333-1.791c0-1.733-0.718-3.066-2.181-3.998c-1.447-0.916-3.581-1.39-6.387-1.39
						C288.243,72.042,278.62,74.233,267.141,78.642z"/>
					<path fill="#5A99D0" d="M403.085,106.606c-0.238,1.811-0.781,5.148-1.641,10.015l-1.779,10.874
						c-7.117,1.719-14.07,2.593-20.879,2.593c-4.951,0-9.266-0.495-12.998-1.5c-4.383-1.176-8.344-3.265-11.832-6.267
						c-3.581-3.071-6.2-6.727-7.823-10.947c-1.958-4.945-2.936-10.484-2.936-16.6c0-5.623,0.958-11.051,2.862-16.262
						c1.912-5.221,4.716-9.521,8.439-12.903c3.727-3.369,7.85-5.644,12.372-6.799c4.55-1.155,9.558-1.734,15.05-1.734
						c3.216,0,6.455,0.168,9.724,0.521c3.273,0.328,7.304,1.072,12.124,2.202l0.13,1.558c0.13,1.639,0.233,3.31,0.316,5.007
						c0.047,1.696,0.188,4.409,0.422,8.057l0.401,6.07c-6.471-2.274-12.217-3.414-17.204-3.414c-3.571,0-6.726,0.692-9.427,2.071
						c-2.697,1.39-4.69,3.394-5.986,5.996c-1.281,2.608-1.931,5.648-1.931,9.09c0,3.498,0.567,6.407,1.734,8.765
						c1.165,2.368,3.002,4.137,5.538,5.305c2.545,1.186,5.335,1.791,8.375,1.791c1.557,0,3.373-0.166,5.481-0.494
						c2.098-0.308,3.936-0.672,5.513-1.042C398.686,108.157,400.67,107.511,403.085,106.606z"/>
					<path fill="#5A99D0" d="M415.256,128.317c0.623-5.81,1.082-10.521,1.342-14.148c0.364-4.949,0.729-11.145,1.099-18.572
						l0.739-16.132c0.308-7.303,0.542-14.279,0.683-20.952c0.176-7.984,0.26-15.679,0.26-23.08
						c6.351,0.093,11.124,0.145,14.304,0.145c3.665,0,8.037-0.051,13.082-0.145c-1.058,11.889-2.016,26.651-2.874,44.292
						c-0.874,17.652-1.307,33.846-1.307,48.593c-5.258-0.094-9.703-0.141-13.331-0.141
						C425.083,128.177,420.419,128.224,415.256,128.317z M445.254,89.226l11.717-16.84l8.767-13.539
						c6.256,0.094,10.988,0.13,14.216,0.13c4.455,0,9.708-0.036,15.789-0.13l-13.551,17.605c-3.17,4.039-6.408,8.391-9.713,13.055
						c3.175,5.846,10.822,18.783,22.925,38.812c-5.314-0.094-10.1-0.141-14.367-0.141c-4.347,0-9.324,0.047-14.961,0.141
						l-4.216-8.516c-1.494-2.947-2.796-5.434-3.878-7.412c-0.411-0.823-3.509-6.397-9.317-16.685L445.254,89.226z"/>
				</g>
				<g>
					<path fill="#96CA4C" d="M501.728,128.317l1.675-13.758l4.196-47.676l2.097-31.45c8.367,0.093,14.941,0.145,19.724,0.145
						c3.972,0,10.017-0.051,18.173-0.145c0.577,3.913,1.094,6.871,1.484,8.885c0.41,2.029,1.415,5.965,3.019,11.842
						c1.597,5.867,2.909,10.947,3.872,15.237c0.979,4.289,2.441,11.618,4.373,22.007c2.004-7.104,3.821-13.242,5.456-18.368
						c1.639-5.113,3.674-10.947,6.143-17.486c2.445-6.527,4.001-10.801,4.663-12.805c0.661-2.042,1.557-5.127,2.687-9.312
						c6.813,0.093,13.481,0.145,19.988,0.145c4.456,0,10.628-0.051,18.515-0.145c-0.848,15.299-1.426,28.431-1.696,39.404
						c-0.589,21.479-0.885,36.282-0.885,44.365c0,1.672,0.048,4.711,0.14,9.115c-5.995-0.094-10.192-0.151-12.596-0.151
						c-3.488,0-7.777,0.058-12.848,0.151c0.363-4.103,0.822-13.805,1.38-29.161c0.552-15.355,0.833-25.168,0.833-29.426
						c0-1.859-0.048-4.451-0.142-7.751l-8.933,27.693l-12.794,38.645c-5.902-0.094-9.958-0.151-12.196-0.151
						c-2.807,0-7.115,0.058-12.925,0.151l-8.382-37.432l-4.912-19.937c-0.178-0.755-0.391-1.723-0.615-2.853
						c-0.234-1.13-0.587-3.134-1.081-5.986l-1.72,18.843l-2.264,38.65l-0.204,8.714c-6.268-0.094-10.249-0.151-11.967-0.151
						C511.617,128.166,507.536,128.224,501.728,128.317z"/>
					<path fill="#96CA4C" d="M637.187,78.642c0.859-4.491,1.401-7.589,1.624-9.286c0.24-1.696,0.604-4.362,1.1-8
						c13.054-2.843,24.282-4.28,33.679-4.28c5.345,0,10.26,0.604,14.705,1.806c4.439,1.203,7.906,3.134,10.404,5.82
						c2.501,2.66,3.748,6.501,3.748,11.489c0,2.534-0.344,8.26-1.03,17.156c-0.667,8.896-1.197,20.541-1.552,34.97
						c-4.444-0.094-8.875-0.151-13.269-0.151c-4.269,0-8.813,0.058-13.621,0.151c0.614-4.997,1.306-15.294,2.06-30.893
						c-1.731,0.812-3.075,1.415-4.038,1.769c-0.979,0.354-2.687,0.907-5.126,1.624c-2.453,0.745-4.364,1.344-5.727,1.839
						c-1.392,0.51-2.583,1.144-3.608,1.91c-1.015,0.775-1.744,1.568-2.165,2.378c-0.438,0.828-0.64,1.734-0.64,2.723
						c0,1.546,0.603,2.853,1.815,3.951c1.239,1.092,3.191,1.635,5.867,1.635c0.943,0,1.967-0.084,3.056-0.234
						c1.093-0.167,2.576-0.568,4.486-1.193c-1.307,3.487-2.874,8.59-4.69,15.294c-3.907,0.636-7.589,0.969-11.087,0.969
						c-5.622,0-10.312-0.792-14.05-2.359c-3.732-1.556-6.62-4.091-8.646-7.572c-2.015-3.499-3.028-7.002-3.028-10.489
						c0-2.128,0.38-4.229,1.129-6.258c0.743-2.034,1.899-4.039,3.503-5.984c1.577-1.958,3.441-3.618,5.574-4.998
						c2.13-1.39,5.039-2.697,8.741-3.909c3.69-1.239,8.364-2.395,14.048-3.478c2.354-0.448,4.523-0.943,6.492-1.473
						c1.977-0.516,3.367-0.969,4.216-1.342c0.827-0.391,1.511-0.839,2.03-1.37c0.525-0.525,0.904-1.072,1.119-1.634
						c0.245-0.579,0.338-1.156,0.338-1.791c0-1.733-0.718-3.066-2.165-3.998c-1.452-0.916-3.581-1.39-6.398-1.39
						C658.289,72.042,648.655,74.233,637.187,78.642z"/>
					<path fill="#96CA4C" d="M713.108,160.158c0.874-9.312,1.592-18.582,2.181-27.834c1.046-15.823,1.755-29.103,2.145-39.825
						c0.375-10.733,0.576-21.352,0.576-31.888c9.204-1.4,16.414-2.343,21.635-2.816c5.222-0.469,10.432-0.719,15.643-0.719
						c6.527,0,12.55,0.688,18.053,2.041c5.47,1.354,9.885,3.759,13.221,7.209c3.321,3.457,5.836,7.542,7.517,12.315
						c1.677,4.774,2.515,9.756,2.515,14.967c0,4.757-0.677,9.378-2.039,13.846c-1.371,4.476-3.433,8.496-6.259,12.086
						c-2.807,3.582-6.033,6.232-9.677,7.954c-3.648,1.719-7.72,2.593-12.206,2.593c-2.217,0-4.514-0.225-6.902-0.662
						c-2.374-0.427-4.634-1.052-6.757-1.864c-2.13-0.822-3.904-1.649-5.331-2.472c-1.436-0.848-3.215-2.062-5.334-3.639
						l-0.755,18.969c-0.334,8.708-0.484,15.283-0.484,19.738c-5.279-0.093-9.792-0.14-13.55-0.14
						C724.008,160.019,719.297,160.065,713.108,160.158z M744.476,77.961c-0.364,2.045-0.615,3.711-0.739,4.992
						c-0.146,1.296-0.271,3.056-0.416,5.247c-0.142,2.212-0.199,3.956-0.199,5.268c0,3.732,0.579,6.856,1.719,9.365
						c1.154,2.509,2.77,4.465,4.825,5.846c2.078,1.389,4.279,2.087,6.647,2.087c2.488,0,4.783-0.719,6.881-2.146
						c2.087-1.426,3.738-3.571,4.962-6.433c1.223-2.853,1.837-6.08,1.837-9.662c0-4.856-1.279-8.745-3.853-11.692
						c-2.545-2.957-6.292-4.429-11.19-4.429C751.882,76.404,748.39,76.92,744.476,77.961z"/>
				</g>
			</g>
			<g>
				<g>
					<path fill="#96CA4C" d="M47.869,102.701c0.281-0.177,0.599-0.338,0.916-0.551c2.416-1.613,3.347-3.32,4.222-6.584
						c0.916-3.383,3.217-5.528,5.325-8.083c1.613-1.969,1.27-5.613,2.071-8.439c1.109-3.961,2.333-7.907,3.748-11.759
						c1.025-2.816,1.073-5.659-1.072-7.449c-2.202-1.817-4.95,0.297-6.116,1.754c-3.889,4.914-10.385,6.797-13.248,12.81
						c-0.38,0.792-1.535,1-1.92,0.318c-0.37-0.635-0.402-2.024,0.036-2.555c4.206-5.221,7.746-10.927,13.576-14.79
						c3.04-2.03,5.152-5.996,8.223-8.608c0.969-0.818-0.894-2.515-1.577-3.785c-1.165-2.169-2.388-4.69-1.046-7.083
						c1.567-2.816,4.217-3.807,7.069-2c3.061,1.931,1.811,5.232,1.864,8.068c0.01,0.567-0.875,1.203,0.01,1.661
						c0.942,0.484,1.14-0.458,1.66-1.01c1.083-1.156,2.296-2.405,3.691-2.973c5.522-2.249,7.927-9.411,4.336-14.294
						c-1.806-2.461-0.896-4.794-0.662-7.229c0.021-0.214,0.802-0.594,1.14-0.511c1.536,0.365,2.358,1.708,2.639,3.05
						c0.547,2.572,0.625,5.222,1.041,7.804c0.412,2.508,0.683,4.476,0.308,7.037c-0.511,2.816-2.432,6.158-4.446,7.329
						c-4.252,2.462-2.545,8.761-2.18,14.383c0.463,7.225,3.632,15.6-3.853,21.696c-6.658,5.408-12.04,12.217-17.287,18.995
						c-0.151,0.198-1.426,1.567-1.566,1.764l56.067-16.616c3.16-6.741,5.195-14.705,5.289-22.633
						c0.428-32.805-25.402-58.066-56.732-58.066c-31.342,0-57.536,26.006-56.734,58.066c0.198,8.635,2.603,17.672,6.304,24.72
						L47.869,102.701z"/>
				</g>
				<g>
					<polyline fill="#5A99D0" points="108.6,89.012 49.279,106.533 12.805,93.759 59.378,170.976 					"/>
				</g>
			</g>
		</g>
	</g>
	<g>
		<path fill="#5A99D0" d="M154.024,164.761c0,4.482-2.863,6.724-8.589,6.724c-2.533,0-4.897-0.253-7.092-0.76l0.714-3.385
			c1.995,0.768,4.16,1.151,6.493,1.151c3.347,0,5.02-0.952,5.02-2.855c0-0.921-0.373-1.654-1.117-2.199
			c-0.745-0.545-1.977-1.154-3.696-1.83c-2.18-0.859-3.761-1.688-4.744-2.487c-1.443-1.182-2.165-2.609-2.165-4.283
			c0-1.75,0.66-3.25,1.98-4.501c1.32-1.251,3.331-1.877,6.033-1.877c2.64,0,4.759,0.223,6.355,0.668l-0.714,3.315
			c-1.658-0.66-3.577-0.99-5.757-0.99c-2.947,0-4.421,0.853-4.421,2.557c0,0.859,0.33,1.554,0.99,2.083
			c0.66,0.53,1.949,1.171,3.868,1.923c2.073,0.814,3.607,1.612,4.605,2.396C153.28,161.622,154.024,163.072,154.024,164.761z"/>
		<path fill="#5A99D0" d="M182.733,159.165c0,3.316-0.948,6.222-2.844,8.716c-1.896,2.495-4.532,3.742-7.909,3.742
			c-2.825,0-4.683-0.507-5.573-1.521h-0.23c0,4.268,0.046,8.075,0.138,11.422h-4.329c0.353-4.084,0.529-9.127,0.529-15.129
			c0-7.398-0.384-13.125-1.151-17.178l4.052-0.575l0.346,2.279h0.23c1.489-1.734,3.899-2.602,7.23-2.602
			c2.932,0,5.25,1.07,6.954,3.212S182.733,156.218,182.733,159.165z M178.634,159.718c0-2.271-0.599-4.217-1.796-5.837
			c-1.197-1.619-2.878-2.43-5.043-2.43c-2.763,0-4.743,0.837-5.941,2.51c0.246,5.158,0.369,9.587,0.369,13.287
			c1.244,1.044,2.863,1.565,4.858,1.565c2.533,0,4.425-0.891,5.676-2.671C178.008,164.361,178.634,162.221,178.634,159.718z"/>
		<path fill="#5A99D0" d="M211.763,159.396c0,3.93-1.128,6.996-3.385,9.199c-2.256,2.203-4.913,3.305-7.967,3.305
			c-2.855,0-5.308-0.975-7.357-2.925c-2.049-1.949-3.074-4.697-3.074-8.243c0-3.961,1.132-7.054,3.396-9.28
			c2.264-2.226,4.923-3.339,7.979-3.339c2.855,0,5.304,0.987,7.345,2.959C210.742,153.044,211.763,155.819,211.763,159.396z
			 M207.779,160.201c0-2.395-0.603-4.524-1.808-6.39s-2.921-2.798-5.146-2.798c-2.21,0-3.911,0.883-5.1,2.648
			c-1.19,1.766-1.785,3.814-1.785,6.148c0,2.41,0.602,4.544,1.808,6.401c1.205,1.857,2.928,2.786,5.169,2.786
			c2.21,0,3.907-0.887,5.089-2.66C207.188,164.565,207.779,162.52,207.779,160.201z"/>
		<path fill="#5A99D0" d="M233.678,149.126l-1.037,3.661c-1.197-0.476-2.311-0.714-3.339-0.714c-2.886,0-4.759,1.374-5.618,4.122
			c0,7.062,0.046,11.996,0.138,14.806h-4.076c0.245-4.866,0.368-8.643,0.368-11.329c0-3.638-0.361-7.123-1.082-10.454l4.03-0.575
			c0.291,1.688,0.438,2.816,0.438,3.385h0.184c1.658-2.441,3.592-3.661,5.803-3.661
			C230.654,148.366,232.051,148.619,233.678,149.126z"/>
		<path fill="#5A99D0" d="M251.794,167.823l-0.276,2.993c-1.213,0.445-2.357,0.668-3.431,0.668c-2.763,0-4.651-0.702-5.665-2.106
			c-1.013-1.405-1.52-3.918-1.52-7.542c0-2.349,0.015-5.411,0.046-9.188c-0.86,0-2.126,0.047-3.799,0.139l0.138-3.339
			c1.458,0.092,2.763,0.138,3.915,0.138c0-0.921,0.077-3.108,0.23-6.563l3.615-0.368c-0.261,3.224-0.391,5.534-0.391,6.931
			c1.504,0,3.715-0.076,6.631-0.229l-0.161,3.431c-2.763-0.092-4.981-0.139-6.655-0.139c-0.031,2.318-0.046,4.928-0.046,7.829
			c0,3.163,0.334,5.254,1.001,6.275c0.668,1.021,1.907,1.531,3.719,1.531C249.745,168.284,250.627,168.131,251.794,167.823z"/>
		<path fill="#5A99D0" d="M314.816,171.001l-3.615,0.138c-0.184-0.752-0.276-1.465-0.276-2.141h-0.23
			c-1.888,1.719-4.459,2.578-7.714,2.578c-1.765,0-3.285-0.518-4.559-1.554c-1.274-1.036-1.911-2.514-1.911-4.433
			c0-2.364,0.998-4.264,2.994-5.699c1.995-1.436,5.703-2.191,11.122-2.269c0.046-0.368,0.069-0.79,0.069-1.266
			c0-1.889-0.503-3.147-1.508-3.776c-1.006-0.63-2.529-0.944-4.571-0.944c-2.41,0-4.782,0.299-7.115,0.897l0.391-3.177
			c2.303-0.66,4.951-0.99,7.944-0.99c2.732,0,4.843,0.563,6.333,1.692c1.489,1.128,2.233,3.051,2.233,5.768
			c0,0.722-0.035,2.03-0.104,3.927c-0.069,1.896-0.104,3.158-0.104,3.787C314.195,166.335,314.402,168.821,314.816,171.001z
			 M310.741,166.534c-0.077-2.334-0.115-4.429-0.115-6.286c-2.886,0-5.082,0.215-6.585,0.645c-2.518,0.768-3.776,2.233-3.776,4.397
			c0,2.088,1.474,3.132,4.421,3.132C307.218,168.422,309.236,167.793,310.741,166.534z"/>
		<path fill="#5A99D0" d="M340.093,167.478l-0.23,3.086c-1.243,0.706-2.909,1.06-4.997,1.06c-3.976,0-7.016-1.098-9.119-3.293
			s-3.154-4.844-3.154-7.944c0-3.285,1.105-6.109,3.315-8.474c2.211-2.364,5.135-3.546,8.773-3.546c1.827,0,3.316,0.184,4.467,0.553
			l-0.622,3.614c-1.612-0.599-3.247-0.897-4.904-0.897c-2.18,0-3.915,0.76-5.204,2.279s-1.935,3.424-1.935,5.711
			c0,2.486,0.768,4.56,2.303,6.217c1.535,1.658,3.708,2.487,6.517,2.487C336.455,168.33,338.051,168.046,340.093,167.478z"/>
		<path fill="#5A99D0" d="M359.959,167.823l-0.276,2.993c-1.213,0.445-2.357,0.668-3.431,0.668c-2.763,0-4.651-0.702-5.665-2.106
			c-1.013-1.405-1.52-3.918-1.52-7.542c0-2.349,0.015-5.411,0.046-9.188c-0.86,0-2.126,0.047-3.799,0.139l0.138-3.339
			c1.458,0.092,2.763,0.138,3.915,0.138c0-0.921,0.077-3.108,0.23-6.563l3.615-0.368c-0.261,3.224-0.391,5.534-0.391,6.931
			c1.504,0,3.715-0.076,6.631-0.229l-0.161,3.431c-2.763-0.092-4.981-0.139-6.655-0.139c-0.031,2.318-0.046,4.928-0.046,7.829
			c0,3.163,0.334,5.254,1.001,6.275c0.668,1.021,1.907,1.531,3.719,1.531C357.91,168.284,358.792,168.131,359.959,167.823z"/>
		<path fill="#5A99D0" d="M371.121,171.001h-4.168c0.215-3.07,0.322-6.578,0.322-10.523c0-4.436-0.269-8.158-0.806-11.168
			l4.605-0.621c-0.184,3.208-0.276,7.138-0.276,11.789C370.798,164.162,370.906,167.67,371.121,171.001z M372.088,142.218
			c0,0.783-0.253,1.462-0.76,2.038c-0.506,0.575-1.22,0.863-2.142,0.863c-0.783,0-1.393-0.249-1.831-0.748s-0.656-1.102-0.656-1.808
			c0-0.768,0.261-1.436,0.783-2.004c0.521-0.567,1.243-0.852,2.164-0.852c0.752,0,1.347,0.25,1.785,0.748
			C371.869,140.955,372.088,141.542,372.088,142.218z"/>
		<path fill="#5A99D0" d="M398.517,149.126c0,0.752-1.554,4.379-4.663,10.88c-3.108,6.501-4.663,10.166-4.663,10.995h-3.085
			c0-1.074-1.37-4.832-4.11-11.271s-4.11-9.974-4.11-10.604h4.467c0,0.736,0.998,3.661,2.993,8.772
			c1.996,5.112,2.994,8.037,2.994,8.773h0.207c0-0.706,0.948-3.523,2.844-8.45c1.896-4.928,2.844-7.96,2.844-9.096H398.517z"/>
		<path fill="#5A99D0" d="M409.425,171.001h-4.168c0.215-3.07,0.323-6.578,0.323-10.523c0-4.436-0.27-8.158-0.807-11.168
			l4.605-0.621c-0.185,3.208-0.276,7.138-0.276,11.789C409.103,164.162,409.21,167.67,409.425,171.001z M410.393,142.218
			c0,0.783-0.254,1.462-0.761,2.038c-0.506,0.575-1.22,0.863-2.141,0.863c-0.783,0-1.394-0.249-1.831-0.748
			s-0.656-1.102-0.656-1.808c0-0.768,0.261-1.436,0.783-2.004c0.521-0.567,1.243-0.852,2.164-0.852c0.752,0,1.348,0.25,1.785,0.748
			C410.174,140.955,410.393,141.542,410.393,142.218z"/>
		<path fill="#5A99D0" d="M430.834,167.823l-0.276,2.993c-1.213,0.445-2.356,0.668-3.431,0.668c-2.764,0-4.651-0.702-5.665-2.106
			c-1.013-1.405-1.52-3.918-1.52-7.542c0-2.349,0.015-5.411,0.046-9.188c-0.859,0-2.126,0.047-3.8,0.139l0.139-3.339
			c1.458,0.092,2.763,0.138,3.914,0.138c0-0.921,0.077-3.108,0.23-6.563l3.615-0.368c-0.261,3.224-0.392,5.534-0.392,6.931
			c1.505,0,3.715-0.076,6.632-0.229l-0.161,3.431c-2.763-0.092-4.981-0.139-6.654-0.139c-0.031,2.318-0.046,4.928-0.046,7.829
			c0,3.163,0.333,5.254,1.001,6.275c0.668,1.021,1.907,1.531,3.719,1.531C428.784,168.284,429.667,168.131,430.834,167.823z"/>
		<path fill="#5A99D0" d="M455.696,149.126c0,0.982-1.159,4.114-3.478,9.395c-2.655,6.033-4.306,10.285-4.95,12.757
			c-1.06,4.007-2.042,6.555-2.947,7.645c-1.229,1.505-3.416,2.257-6.563,2.257l-0.185-3.224c1.919,0,3.516-0.652,4.79-1.957
			c1.273-1.306,1.911-2.94,1.911-4.905c0-1.704-1.413-5.756-4.237-12.157c-2.824-6.402-4.237-9.672-4.237-9.81h4.767
			c0,0.414,0.968,3.208,2.901,8.382c1.935,5.173,2.901,8.358,2.901,9.556h0.23c0-0.998,0.817-3.892,2.452-8.681
			c1.635-4.79,2.452-7.875,2.452-9.257H455.696z"/>
		<path fill="#5A99D0" d="M508.109,170.978l-3.432,0.115c-0.123-0.659-0.184-1.358-0.184-2.095h-0.254
			c-1.611,1.75-4.006,2.625-7.184,2.625c-2.917,0-5.239-1.06-6.966-3.178c-1.727-2.119-2.591-4.675-2.591-7.668
			c0-3.393,0.96-6.317,2.879-8.773s4.62-3.684,8.105-3.684c2.486,0,4.267,0.506,5.342,1.52h0.185c0-3.808-0.108-7.545-0.322-11.214
			l4.375-0.161c-0.292,3.899-0.438,9.003-0.438,15.313C507.626,160.194,507.787,165.928,508.109,170.978z M504.401,166.441
			c0-4.773-0.13-9.371-0.391-13.793c-1.244-1.028-2.795-1.542-4.651-1.542c-2.595,0-4.536,0.863-5.826,2.59
			c-1.289,1.728-1.935,3.896-1.935,6.505c0,2.334,0.61,4.299,1.831,5.896s2.913,2.395,5.077,2.395
			C501.225,168.491,503.189,167.809,504.401,166.441z"/>
		<path fill="#5A99D0" d="M534.192,171.001l-3.615,0.138c-0.184-0.752-0.275-1.465-0.275-2.141h-0.23
			c-1.889,1.719-4.46,2.578-7.714,2.578c-1.766,0-3.285-0.518-4.56-1.554s-1.911-2.514-1.911-4.433c0-2.364,0.998-4.264,2.993-5.699
			c1.996-1.436,5.703-2.191,11.122-2.269c0.046-0.368,0.069-0.79,0.069-1.266c0-1.889-0.503-3.147-1.509-3.776
			c-1.005-0.63-2.529-0.944-4.57-0.944c-2.41,0-4.782,0.299-7.115,0.897l0.392-3.177c2.303-0.66,4.95-0.99,7.944-0.99
			c2.731,0,4.843,0.563,6.332,1.692c1.488,1.128,2.233,3.051,2.233,5.768c0,0.722-0.034,2.03-0.104,3.927
			c-0.069,1.896-0.104,3.158-0.104,3.787C533.571,166.335,533.778,168.821,534.192,171.001z M530.117,166.534
			c-0.077-2.334-0.115-4.429-0.115-6.286c-2.886,0-5.081,0.215-6.586,0.645c-2.518,0.768-3.776,2.233-3.776,4.397
			c0,2.088,1.474,3.132,4.422,3.132C526.594,168.422,528.612,167.793,530.117,166.534z"/>
		<path fill="#5A99D0" d="M555.348,167.823l-0.276,2.993c-1.213,0.445-2.356,0.668-3.431,0.668c-2.764,0-4.651-0.702-5.665-2.106
			c-1.013-1.405-1.52-3.918-1.52-7.542c0-2.349,0.015-5.411,0.046-9.188c-0.859,0-2.126,0.047-3.8,0.139l0.139-3.339
			c1.458,0.092,2.763,0.138,3.914,0.138c0-0.921,0.077-3.108,0.23-6.563l3.615-0.368c-0.261,3.224-0.392,5.534-0.392,6.931
			c1.505,0,3.715-0.076,6.632-0.229l-0.161,3.431c-2.763-0.092-4.981-0.139-6.654-0.139c-0.031,2.318-0.046,4.928-0.046,7.829
			c0,3.163,0.333,5.254,1.001,6.275c0.668,1.021,1.907,1.531,3.719,1.531C553.298,168.284,554.181,168.131,555.348,167.823z"/>
		<path fill="#5A99D0" d="M579.635,171.001l-3.615,0.138c-0.184-0.752-0.275-1.465-0.275-2.141h-0.23
			c-1.889,1.719-4.46,2.578-7.714,2.578c-1.766,0-3.285-0.518-4.56-1.554s-1.911-2.514-1.911-4.433c0-2.364,0.998-4.264,2.993-5.699
			c1.996-1.436,5.703-2.191,11.122-2.269c0.046-0.368,0.069-0.79,0.069-1.266c0-1.889-0.503-3.147-1.509-3.776
			c-1.005-0.63-2.529-0.944-4.57-0.944c-2.41,0-4.782,0.299-7.115,0.897l0.392-3.177c2.303-0.66,4.95-0.99,7.944-0.99
			c2.731,0,4.843,0.563,6.332,1.692c1.488,1.128,2.233,3.051,2.233,5.768c0,0.722-0.034,2.03-0.104,3.927
			c-0.069,1.896-0.104,3.158-0.104,3.787C579.014,166.335,579.221,168.821,579.635,171.001z M575.56,166.534
			c-0.077-2.334-0.115-4.429-0.115-6.286c-2.886,0-5.081,0.215-6.586,0.645c-2.518,0.768-3.776,2.233-3.776,4.397
			c0,2.088,1.474,3.132,4.422,3.132C572.036,168.422,574.055,167.793,575.56,166.534z"/>
		<path fill="#5A99D0" d="M609.057,159.165c0,3.362-0.96,6.279-2.879,8.75c-1.919,2.472-4.544,3.708-7.875,3.708
			c-2.824,0-4.743-0.507-5.757-1.521h-0.184l-0.576,0.898h-3.385c0.199-5.296,0.3-11.021,0.3-17.178
			c0-5.557-0.254-10.631-0.76-15.221l4.559-0.23c-0.153,2.641-0.229,6.824-0.229,12.55h0.184c1.505-1.734,3.892-2.602,7.161-2.602
			c2.84,0,5.124,1.059,6.851,3.177C608.193,153.616,609.057,156.172,609.057,159.165z M604.958,159.718
			c0-2.317-0.606-4.274-1.819-5.871s-2.887-2.396-5.02-2.396c-2.764,0-4.744,0.837-5.941,2.51c0,5.466,0.123,9.895,0.368,13.287
			c1.244,1.044,2.863,1.565,4.859,1.565c2.518,0,4.405-0.883,5.664-2.648C604.328,164.4,604.958,162.251,604.958,159.718z"/>
		<path fill="#5A99D0" d="M634.356,171.001l-3.615,0.138c-0.184-0.752-0.275-1.465-0.275-2.141h-0.23
			c-1.889,1.719-4.46,2.578-7.714,2.578c-1.766,0-3.285-0.518-4.56-1.554s-1.911-2.514-1.911-4.433c0-2.364,0.998-4.264,2.993-5.699
			c1.996-1.436,5.703-2.191,11.122-2.269c0.046-0.368,0.069-0.79,0.069-1.266c0-1.889-0.503-3.147-1.509-3.776
			c-1.005-0.63-2.529-0.944-4.57-0.944c-2.41,0-4.782,0.299-7.115,0.897l0.392-3.177c2.303-0.66,4.95-0.99,7.944-0.99
			c2.731,0,4.843,0.563,6.332,1.692c1.488,1.128,2.233,3.051,2.233,5.768c0,0.722-0.034,2.03-0.104,3.927
			c-0.069,1.896-0.104,3.158-0.104,3.787C633.735,166.335,633.942,168.821,634.356,171.001z M630.281,166.534
			c-0.077-2.334-0.115-4.429-0.115-6.286c-2.886,0-5.081,0.215-6.586,0.645c-2.518,0.768-3.776,2.233-3.776,4.397
			c0,2.088,1.474,3.132,4.422,3.132C626.758,168.422,628.776,167.793,630.281,166.534z"/>
		<path fill="#5A99D0" d="M657.515,164.761c0,4.482-2.863,6.724-8.589,6.724c-2.533,0-4.896-0.253-7.092-0.76l0.714-3.385
			c1.995,0.768,4.159,1.151,6.493,1.151c3.347,0,5.02-0.952,5.02-2.855c0-0.921-0.372-1.654-1.116-2.199
			c-0.745-0.545-1.977-1.154-3.696-1.83c-2.18-0.859-3.761-1.688-4.743-2.487c-1.443-1.182-2.164-2.609-2.164-4.283
			c0-1.75,0.659-3.25,1.979-4.501s3.331-1.877,6.033-1.877c2.641,0,4.759,0.223,6.355,0.668l-0.714,3.315
			c-1.658-0.66-3.577-0.99-5.757-0.99c-2.947,0-4.421,0.853-4.421,2.557c0,0.859,0.33,1.554,0.99,2.083
			c0.66,0.53,1.949,1.171,3.868,1.923c2.072,0.814,3.607,1.612,4.605,2.396C656.771,161.622,657.515,163.072,657.515,164.761z"/>
		<path fill="#5A99D0" d="M684.22,157.484c0,0.645-0.03,1.535-0.092,2.671l-15.819,0.276c0.153,2.241,1.021,4.118,2.603,5.63
			c1.58,1.513,3.676,2.269,6.286,2.269c2.333,0,4.521-0.284,6.563-0.853l-0.392,3.247c-1.505,0.599-3.677,0.898-6.517,0.898
			c-3.991,0-7.034-1.09-9.13-3.271c-2.096-2.18-3.144-4.835-3.144-7.967c0-3.347,0.956-6.229,2.867-8.646s4.479-3.627,7.702-3.627
			c2.963,0,5.216,0.875,6.759,2.625C683.448,152.487,684.22,154.736,684.22,157.484z M680.375,157.53
			c0-4.313-1.805-6.471-5.411-6.471c-3.685,0-5.857,2.242-6.517,6.725L680.375,157.53z"/>
	</g>
</g>
</svg>
