<?xml version="1.0" encoding="utf-8"?>
<!-- Generator: Adobe Illustrator 16.0.0, SVG Export Plug-In . SVG Version: 6.00 Build 0)  -->
<!DOCTYPE svg PUBLIC "-//W3C//DTD SVG 1.1//EN" "http://www.w3.org/Graphics/SVG/1.1/DTD/svg11.dtd">
<svg version="1.1" id="Layer_1" xmlns="http://www.w3.org/2000/svg" xmlns:xlink="http://www.w3.org/1999/xlink" x="0px" y="0px"
	 width="841.89px" height="595.28px" viewBox="0 0 841.89 595.28" enable-background="new 0 0 841.89 595.28" xml:space="preserve">
<g>
	<g>
		<g>
			<path fill="#5A99D0" d="M34.021,546.496c-0.694-11.242-1.482-20.266-2.387-27.02c5.943,2.65,11.208,4.479,15.838,5.521
				c4.639,1.021,8.692,1.538,12.18,1.538c4.612,0,8.277-0.666,11.004-2.021c2.726-1.346,4.095-3.345,4.095-5.985
				c0-0.889-0.134-1.753-0.396-2.575c-0.264-0.821-0.781-1.742-1.516-2.775c-0.754-1.014-1.795-2.156-3.183-3.367l-14.931-12.996
				c-3.486-2.962-5.926-5.094-7.297-6.416c-2.812-2.69-4.995-5.196-6.552-7.525c-1.558-2.335-2.7-4.706-3.42-7.101
				c-0.709-2.396-1.082-4.943-1.082-7.644c0-3.233,0.584-6.382,1.727-9.466c1.135-3.096,2.843-5.992,5.104-8.684
				c2.276-2.701,5.273-5,9.032-6.965c3.757-1.956,7.77-3.292,12.046-4.006c4.291-0.718,8.692-1.074,13.229-1.074
				c8.939,0,18.657,1.025,29.168,3.09c0.154,3.64,0.339,6.992,0.543,10.03c0.218,3.039,0.728,8.355,1.523,15.966
				c-4.868-1.957-9.303-3.312-13.323-4.09c-4.02-0.752-7.467-1.15-10.378-1.15c-4.121,0-7.542,0.779-10.251,2.31
				c-2.734,1.533-4.087,3.428-4.087,5.698c0,1.067,0.211,2.089,0.635,3.098c0.422,1.007,1.191,2.166,2.377,3.521
				c1.152,1.338,2.691,2.828,4.587,4.444c1.904,1.607,4.893,3.995,8.957,7.17l5.705,4.511c1.693,1.38,3.522,3.039,5.468,4.995
				c1.955,1.964,3.639,3.885,5.079,5.797c1.422,1.896,2.523,3.633,3.285,5.217c0.762,1.591,1.335,3.183,1.708,4.808
				c0.373,1.6,0.55,3.334,0.55,5.181c0,4.756-1.143,9.285-3.42,13.596c-2.259,4.298-5.483,7.847-9.657,10.622
				c-4.182,2.775-8.77,4.722-13.745,5.815c-4.997,1.116-10.261,1.659-15.813,1.659C57.865,550.222,47.065,548.984,34.021,546.496z"
				/>
			<path fill="#5A99D0" d="M123.56,548.163l1.414-17.037l3.074-59.248l0.863-31.886c7.355,0.103,12.882,0.161,16.574,0.161
				c4.823,0,10.132-0.059,15.955-0.161l-1.81,24.329l-2.904,59.915l-0.626,23.927c-5.664-0.042-10.778-0.076-15.321-0.076
				L123.56,548.163z"/>
			<path fill="#5A99D0" d="M181.406,490.324c1.009-5.239,1.645-8.837,1.914-10.81c0.255-2.006,0.687-5.087,1.262-9.32
				c15.212-3.343,28.297-4.995,39.233-4.995c6.239,0,11.92,0.694,17.117,2.094c5.179,1.402,9.226,3.664,12.139,6.777
				c2.895,3.117,4.35,7.576,4.35,13.393c0,2.962-0.391,9.617-1.187,19.977c-0.776,10.344-1.395,23.923-1.817,40.724
				c-5.181-0.083-10.329-0.151-15.457-0.151c-4.97,0-10.269,0.068-15.865,0.151c0.721-5.805,1.526-17.8,2.406-35.976
				c-2.025,0.957-3.597,1.645-4.699,2.059c-1.15,0.43-3.132,1.067-5.977,1.912c-2.851,0.837-5.077,1.557-6.686,2.135
				c-1.591,0.572-2.996,1.327-4.182,2.209c-1.194,0.906-2.031,1.825-2.538,2.783c-0.492,0.951-0.754,2.006-0.754,3.167
				c0,1.812,0.721,3.343,2.142,4.598c1.422,1.278,3.69,1.904,6.822,1.904c1.116,0,2.285-0.087,3.564-0.271
				c1.271-0.185,3.005-0.645,5.223-1.388c-1.523,4.061-3.353,10.004-5.451,17.818c-4.554,0.742-8.864,1.108-12.934,1.108
				c-6.553,0-12.001-0.905-16.354-2.72c-4.369-1.816-7.719-4.773-10.072-8.842c-2.353-4.072-3.522-8.127-3.522-12.208
				c0-2.481,0.441-4.909,1.303-7.281c0.873-2.379,2.227-4.706,4.08-6.983c1.854-2.26,4.012-4.224,6.501-5.816
				c2.472-1.616,5.874-3.13,10.184-4.561c4.292-1.432,9.752-2.768,16.353-4.047c2.751-0.525,5.257-1.091,7.559-1.702
				c2.302-0.607,3.937-1.133,4.91-1.582c0.98-0.448,1.776-0.982,2.379-1.582c0.607-0.61,1.041-1.244,1.311-1.904
				c0.255-0.66,0.39-1.355,0.39-2.1c0-2.014-0.863-3.547-2.523-4.646c-1.71-1.075-4.182-1.609-7.447-1.609
				C205.997,482.638,194.782,485.203,181.406,490.324z"/>
			<path fill="#5A99D0" d="M339.747,522.878c-0.27,2.135-0.896,6.003-1.913,11.659l-2.049,12.697
				c-8.294,1.996-16.404,2.987-24.327,2.987c-5.765,0-10.802-0.577-15.135-1.735c-5.129-1.38-9.718-3.801-13.789-7.296
				c-4.172-3.591-7.212-7.84-9.116-12.758c-2.27-5.759-3.413-12.199-3.413-19.341c0-6.544,1.111-12.852,3.328-18.938
				c2.234-6.062,5.502-11.089,9.827-15.017c4.335-3.927,9.133-6.577,14.434-7.913c5.281-1.355,11.121-2.025,17.503-2.025
				c3.743,0,7.535,0.204,11.326,0.602c3.809,0.381,8.517,1.235,14.102,2.558l0.17,1.836c0.152,1.896,0.279,3.835,0.356,5.808
				c0.085,1.996,0.254,5.121,0.524,9.402l0.476,7.052c-7.552-2.64-14.247-3.962-20.062-3.962c-4.165,0-7.831,0.814-10.97,2.431
				c-3.148,1.6-5.467,3.926-6.976,6.958c-1.504,3.047-2.259,6.56-2.259,10.59c0,4.054,0.687,7.467,2.014,10.223
				c1.354,2.746,3.505,4.813,6.477,6.174c2.945,1.361,6.195,2.06,9.732,2.06c1.812,0,3.937-0.182,6.383-0.551
				c2.464-0.366,4.587-0.789,6.426-1.229C334.635,524.699,336.937,523.938,339.747,522.878z"/>
			<path fill="#5A99D0" d="M353.935,548.163c0.728-6.754,1.252-12.249,1.574-16.479c0.422-5.755,0.837-12.961,1.252-21.639
				l0.863-18.772c0.374-8.5,0.643-16.641,0.786-24.421c0.23-9.286,0.322-18.24,0.322-26.859c7.406,0.103,12.952,0.161,16.651,0.161
				c4.292,0,9.369-0.059,15.235-0.161c-1.226,13.85-2.336,31.057-3.35,51.594c-1.017,20.553-1.507,39.411-1.507,56.577
				c-6.13-0.083-11.302-0.151-15.516-0.151C365.387,548.012,359.953,548.08,353.935,548.163z M388.876,502.649l13.636-19.64
				l10.217-15.751c7.298,0.101,12.816,0.158,16.573,0.158c5.163,0,11.293-0.058,18.369-0.158l-15.762,20.499
				c-3.708,4.698-7.475,9.761-11.334,15.195c3.699,6.832,12.604,21.9,26.707,45.21c-6.18-0.083-11.749-0.151-16.718-0.151
				c-5.07,0-10.877,0.068-17.437,0.151l-4.919-9.911c-1.742-3.435-3.241-6.315-4.502-8.636c-0.49-0.965-4.105-7.44-10.868-19.45
				L388.876,502.649z"/>
		</g>
		<g>
			<path fill="#96CA4C" d="M454.671,548.188l1.955-15.996l4.876-55.556l2.431-36.619c9.76,0.102,17.41,0.162,22.997,0.162
				c4.606,0,11.648-0.061,21.129-0.162c0.693,4.548,1.269,7.99,1.743,10.343c0.491,2.346,1.66,6.943,3.521,13.782
				c1.88,6.848,3.368,12.773,4.512,17.742c1.125,5.002,2.835,13.551,5.096,25.638c2.328-8.286,4.444-15.42,6.35-21.391
				c1.903-5.957,4.281-12.745,7.151-20.365c2.853-7.608,4.665-12.577,5.434-14.93c0.762-2.354,1.813-5.959,3.132-10.819
				c7.923,0.102,15.695,0.162,23.295,0.162c5.172,0,12.359-0.061,21.568-0.162c-1.017,17.811-1.676,33.098-1.981,45.889
				c-0.711,25.036-1.031,42.267-1.031,51.659c0,1.947,0.051,5.503,0.144,10.623c-6.968-0.102-11.86-0.157-14.652-0.157
				c-4.07,0-9.059,0.056-14.982,0.157c0.439-4.755,0.965-16.083,1.626-33.961c0.643-17.885,0.965-29.296,0.965-34.265
				c0-2.168-0.067-5.181-0.162-9.04l-10.402,32.259l-14.932,45.007c-6.857-0.102-11.58-0.157-14.171-0.157
				c-3.274,0-8.304,0.056-15.067,0.157l-9.767-43.586l-5.714-23.218c-0.22-0.905-0.433-2.014-0.719-3.336
				c-0.255-1.31-0.678-3.639-1.271-6.966l-1.988,21.951l-2.641,45.015l-0.237,10.14c-7.287-0.102-11.945-0.157-13.949-0.157
				C466.174,548.031,461.417,548.087,454.671,548.188z"/>
			<path fill="#96CA4C" d="M612.436,490.333c1.007-5.223,1.643-8.829,1.913-10.811c0.246-1.988,0.678-5.087,1.263-9.304
				c15.217-3.341,28.288-5,39.223-5c6.239,0,11.953,0.701,17.117,2.106c5.179,1.389,9.226,3.648,12.146,6.772
				c2.887,3.124,4.35,7.574,4.35,13.391c0,2.962-0.398,9.606-1.193,19.967c-0.796,10.362-1.405,23.931-1.811,40.733
				c-5.171-0.102-10.327-0.157-15.474-0.157c-4.952,0-10.25,0.056-15.846,0.157c0.72-5.814,1.523-17.799,2.404-35.981
				c-2.014,0.953-3.581,1.64-4.707,2.055c-1.151,0.434-3.131,1.059-5.976,1.915c-2.844,0.845-5.071,1.565-6.688,2.138
				c-1.608,0.585-2.996,1.324-4.182,2.211c-1.184,0.897-2.03,1.82-2.523,2.779c-0.506,0.946-0.761,2.006-0.761,3.175
				c0,1.791,0.71,3.315,2.134,4.585c1.438,1.271,3.707,1.912,6.822,1.912c1.118,0,2.302-0.09,3.572-0.294
				c1.27-0.17,3.014-0.626,5.214-1.361c-1.524,4.054-3.353,10.005-5.46,17.817c-4.545,0.743-8.846,1.117-12.908,1.117
				c-6.56,0-12.011-0.917-16.37-2.741c-4.352-1.814-7.721-4.768-10.065-8.84c-2.346-4.062-3.521-8.134-3.521-12.195
				c0-2.489,0.432-4.922,1.295-7.3c0.881-2.369,2.244-4.695,4.098-6.973c1.846-2.271,4.002-4.217,6.483-5.826
				c2.479-1.601,5.874-3.125,10.175-4.546c4.317-1.429,9.769-2.783,16.37-4.054c2.743-0.517,5.267-1.092,7.551-1.693
				c2.312-0.619,3.944-1.15,4.91-1.591c0.982-0.449,1.777-0.98,2.377-1.592c0.612-0.599,1.042-1.228,1.322-1.897
				c0.262-0.659,0.398-1.361,0.398-2.089c0-2.016-0.847-3.556-2.54-4.647c-1.711-1.084-4.165-1.616-7.44-1.616
				C637.026,482.655,625.802,485.22,612.436,490.333z"/>
			<path fill="#96CA4C" d="M700.874,585.28c1.008-10.834,1.837-21.642,2.53-32.419c1.221-18.425,2.05-33.895,2.496-46.403
				c0.433-12.495,0.68-24.862,0.68-37.117c10.725-1.652,19.113-2.734,25.207-3.285c6.061-0.558,12.146-0.837,18.216-0.837
				c7.61,0,14.618,0.786,21.018,2.377c6.382,1.592,11.53,4.385,15.406,8.396c3.877,4.021,6.788,8.804,8.753,14.341
				c1.945,5.561,2.928,11.358,2.928,17.438c0,5.551-0.778,10.924-2.37,16.133c-1.574,5.208-4.003,9.895-7.288,14.05
				c-3.267,4.189-7.034,7.274-11.274,9.288c-4.25,1.999-8.997,3.014-14.213,3.014c-2.591,0-5.265-0.265-8.042-0.77
				c-2.775-0.502-5.383-1.229-7.888-2.176c-2.473-0.95-4.547-1.916-6.214-2.89c-1.658-0.972-3.724-2.375-6.213-4.238l-0.872,22.117
				c-0.381,10.141-0.559,17.792-0.559,22.98c-6.128-0.117-11.411-0.159-15.804-0.159
				C713.579,585.121,708.061,585.163,700.874,585.28z M737.398,489.545c-0.415,2.38-0.711,4.325-0.864,5.823
				c-0.15,1.508-0.313,3.556-0.473,6.112c-0.17,2.557-0.244,4.604-0.244,6.136c0,4.334,0.676,7.957,2.005,10.902
				c1.363,2.923,3.241,5.201,5.638,6.807c2.404,1.604,4.995,2.433,7.736,2.433c2.894,0,5.569-0.842,8.008-2.508
				c2.421-1.667,4.351-4.148,5.781-7.482c1.431-3.336,2.15-7.085,2.15-11.261c0-5.652-1.499-10.198-4.478-13.635
				c-2.997-3.428-7.34-5.147-13.046-5.147C746.024,487.725,741.954,488.343,737.398,489.545z"/>
		</g>
	</g>
	<g>
		<path fill="#96CA4C" d="M387.792,240.906c0.652-0.415,1.422-0.796,2.149-1.297c5.672-3.816,7.872-7.812,9.938-15.455
			c2.149-7.948,7.532-12.993,12.476-18.985c3.809-4.648,3.022-13.189,4.876-19.824c2.607-9.312,5.501-18.564,8.81-27.623
			c2.422-6.601,2.506-13.27-2.53-17.461c-5.163-4.274-11.612,0.67-14.339,4.114c-9.158,11.538-24.421,15.957-31.141,30.057
			c-0.873,1.873-3.581,2.353-4.52,0.762c-0.856-1.497-0.915-4.782,0.092-6.009c9.886-12.265,18.199-25.649,31.895-34.729
			c7.161-4.75,12.088-14.077,19.315-20.231c2.26-1.914-2.099-5.882-3.698-8.881c-2.734-5.102-5.63-11.003-2.464-16.615
			c3.692-6.603,9.895-8.93,16.608-4.699c7.178,4.529,4.242,12.267,4.369,18.946c0.007,1.303-2.066,2.816,0.016,3.892
			c2.218,1.143,2.691-1.056,3.928-2.387c2.523-2.691,5.376-5.638,8.651-6.965c12.968-5.291,18.622-22.102,10.2-33.554
			c-4.267-5.789-2.134-11.259-1.566-16.981c0.043-0.532,1.87-1.421,2.692-1.211c3.57,0.874,5.501,4.022,6.179,7.188
			c1.269,6.002,1.455,12.249,2.445,18.301c0.975,5.89,1.601,10.528,0.703,16.505c-1.177,6.644-5.706,14.499-10.412,17.226
			c-10.021,5.781-6.001,20.585-5.154,33.772c1.108,16.964,8.542,36.662-9.031,50.95c-15.618,12.705-28.271,28.705-40.597,44.618
			c-0.356,0.464-3.343,3.681-3.683,4.137l131.685-39.003c7.398-15.821,12.189-34.527,12.426-53.159
			C549.077,69.25,488.445,9.938,414.854,9.938c-73.583,0-135.112,61.08-133.242,136.365c0.483,20.272,6.127,41.496,14.83,58.042
			L387.792,240.906z"/>
		<polyline fill="#5A99D0" points="530.43,208.756 391.119,249.894 305.464,219.92 414.829,401.232 		"/>
	</g>
</g>
</svg>
