<?xml version="1.0" encoding="utf-8"?>
<!-- Generator: Adobe Illustrator 16.0.0, SVG Export Plug-In . SVG Version: 6.00 Build 0)  -->
<!DOCTYPE svg PUBLIC "-//W3C//DTD SVG 1.1//EN" "http://www.w3.org/Graphics/SVG/1.1/DTD/svg11.dtd">
<svg version="1.1" id="Layer_1" xmlns="http://www.w3.org/2000/svg" xmlns:xlink="http://www.w3.org/1999/xlink" x="0px" y="0px"
	 width="841.89px" height="185.739px" viewBox="0 0 841.89 185.739" enable-background="new 0 0 841.89 185.739"
	 xml:space="preserve">
<g>
	<g>
		<path fill="#5A99D0" d="M7.688,134.643c-0.753-12.198-1.608-21.99-2.59-29.318c6.449,2.876,12.161,4.861,17.186,5.99
			c5.033,1.109,9.432,1.669,13.216,1.669c5.004,0,8.982-0.724,11.94-2.193c2.958-1.461,4.444-3.63,4.444-6.494
			c0-0.965-0.146-1.902-0.43-2.794c-0.287-0.89-0.847-1.891-1.645-3.012c-0.818-1.101-1.948-2.34-3.454-3.654L30.154,80.736
			c-3.783-3.214-6.431-5.528-7.918-6.962c-3.05-2.919-5.419-5.639-7.109-8.166c-1.69-2.535-2.93-5.106-3.711-7.705
			c-0.769-2.6-1.174-5.364-1.174-8.294c0-3.509,0.634-6.926,1.874-10.271c1.231-3.359,3.085-6.502,5.538-9.424
			c2.47-2.93,5.723-5.426,9.8-7.558c4.078-2.122,8.431-3.572,13.071-4.346c4.657-0.779,9.432-1.166,14.354-1.166
			c9.7,0,20.245,1.113,31.65,3.354c0.168,3.948,0.368,7.586,0.589,10.882c0.237,3.298,0.79,9.068,1.653,17.325
			c-5.283-2.124-10.095-3.593-14.457-4.438c-4.362-0.816-8.102-1.248-11.261-1.248c-4.472,0-8.184,0.845-11.124,2.506
			c-2.967,1.663-4.436,3.719-4.436,6.183c0,1.158,0.229,2.267,0.689,3.361c0.458,1.093,1.293,2.351,2.58,3.82
			c1.25,1.453,2.919,3.069,4.978,4.822c2.066,1.745,5.309,4.335,9.718,7.781l6.191,4.894c1.837,1.498,3.822,3.298,5.933,5.419
			c2.122,2.132,3.949,4.217,5.512,6.292c1.543,2.058,2.738,3.94,3.564,5.659c0.827,1.727,1.449,3.454,1.854,5.217
			c0.405,1.735,0.597,3.617,0.597,5.622c0,5.16-1.24,10.074-3.711,14.751c-2.451,4.665-5.949,8.515-10.479,11.527
			c-4.538,3.012-9.516,5.123-14.915,6.31c-5.422,1.211-11.134,1.8-17.159,1.8C33.561,138.685,21.842,137.343,7.688,134.643z"/>
		<path fill="#5A99D0" d="M104.845,136.451l1.534-18.487l3.335-64.287l0.937-34.599c7.981,0.111,13.978,0.174,17.984,0.174
			c5.233,0,10.995-0.063,17.313-0.174l-1.964,26.399l-3.151,65.012l-0.679,25.963c-6.146-0.045-11.694-0.082-16.625-0.082
			L104.845,136.451z"/>
		<path fill="#5A99D0" d="M167.614,73.692c1.095-5.686,1.784-9.589,2.077-11.729c0.276-2.177,0.745-5.52,1.369-10.113
			c16.507-3.627,30.706-5.42,42.572-5.42c6.77,0,12.935,0.753,18.573,2.271c5.62,1.522,10.011,3.976,13.171,7.355
			c3.141,3.382,4.72,8.22,4.72,14.532c0,3.212-0.423,10.434-1.287,21.674c-0.843,11.224-1.514,25.959-1.972,44.188
			c-5.622-0.09-11.208-0.164-16.772-0.164c-5.393,0-11.142,0.074-17.214,0.164c0.781-6.298,1.655-19.314,2.61-39.035
			c-2.197,1.038-3.903,1.782-5.098,2.232c-1.248,0.467-3.398,1.158-6.486,2.075c-3.093,0.911-5.51,1.69-7.255,2.316
			c-1.727,0.624-3.251,1.44-4.538,2.398c-1.295,0.982-2.203,1.982-2.753,3.02c-0.534,1.031-0.818,2.177-0.818,3.437
			c0,1.964,0.781,3.625,2.324,4.988c1.542,1.387,4.003,2.066,7.402,2.066c1.211,0,2.48-0.094,3.867-0.294
			c1.379-0.201,3.261-0.7,5.667-1.506c-1.653,4.407-3.638,10.856-5.915,19.334c-4.941,0.806-9.618,1.203-14.035,1.203
			c-7.11,0-13.022-0.982-17.745-2.95c-4.74-1.972-8.376-5.18-10.929-9.595c-2.554-4.419-3.822-8.818-3.822-13.246
			c0-2.692,0.479-5.328,1.414-7.901c0.947-2.58,2.416-5.106,4.427-7.576c2.011-2.453,4.354-4.585,7.055-6.312
			c2.682-1.753,6.373-3.396,11.05-4.949c4.657-1.553,10.582-3.003,17.745-4.391c2.985-0.571,5.704-1.185,8.202-1.847
			c2.498-0.659,4.272-1.23,5.328-1.717c1.064-0.487,1.927-1.066,2.582-1.717c0.659-0.663,1.129-1.35,1.422-2.066
			c0.276-0.716,0.423-1.471,0.423-2.279c0-2.185-0.937-3.849-2.737-5.042c-1.856-1.166-4.538-1.747-8.082-1.747
			C194.297,65.351,182.128,68.135,167.614,73.692z"/>
		<path fill="#5A99D0" d="M339.428,109.017c-0.292,2.314-0.972,6.512-2.075,12.65l-2.224,13.777c-9,2.165-17.8,3.241-26.397,3.241
			c-6.254,0-11.721-0.626-16.422-1.882c-5.565-1.498-10.545-4.125-14.962-7.917c-4.528-3.896-7.826-8.507-9.892-13.843
			c-2.463-6.247-3.703-13.235-3.703-20.987c0-7.1,1.205-13.943,3.611-20.547c2.424-6.578,5.97-12.032,10.664-16.294
			c4.704-4.262,9.91-7.138,15.662-8.587c5.73-1.471,12.067-2.197,18.992-2.197c4.062,0,8.176,0.221,12.29,0.653
			c4.133,0.413,9.242,1.34,15.302,2.774l0.184,1.993c0.166,2.058,0.303,4.161,0.387,6.301c0.092,2.167,0.276,5.557,0.568,10.203
			l0.516,7.652c-8.194-2.864-15.459-4.298-21.769-4.298c-4.52,0-8.497,0.882-11.903,2.637c-3.417,1.735-5.933,4.26-7.57,7.549
			c-1.633,3.306-2.451,7.118-2.451,11.49c0,4.399,0.745,8.102,2.185,11.095c1.469,2.977,3.804,5.219,7.028,6.696
			c3.196,1.478,6.723,2.234,10.561,2.234c1.966,0,4.272-0.196,6.926-0.597c2.674-0.397,4.978-0.855,6.972-1.334
			C333.881,110.991,336.379,110.165,339.428,109.017z"/>
		<path fill="#5A99D0" d="M354.823,136.451c0.79-7.329,1.359-13.291,1.708-17.882c0.458-6.244,0.909-14.063,1.358-23.477
			l0.937-20.371c0.405-9.223,0.698-18.058,0.854-26.499c0.25-10.076,0.35-19.792,0.35-29.145c8.037,0.111,14.054,0.174,18.068,0.174
			c4.656,0,10.166-0.063,16.531-0.174c-1.33,15.027-2.535,33.699-3.635,55.983c-1.103,22.301-1.635,42.764-1.635,61.391
			c-6.651-0.09-12.263-0.164-16.836-0.164C367.25,136.287,361.354,136.361,354.823,136.451z M392.739,87.066l14.796-21.311
			l11.087-17.092c7.917,0.108,13.906,0.172,17.983,0.172c5.602,0,12.253-0.063,19.932-0.172l-17.102,22.243
			c-4.024,5.099-8.112,10.592-12.301,16.488c4.015,7.413,13.677,23.764,28.979,49.056c-6.704-0.09-12.748-0.164-18.139-0.164
			c-5.502,0-11.804,0.074-18.921,0.164l-5.338-10.754c-1.891-3.728-3.518-6.854-4.886-9.37c-0.532-1.047-4.454-8.073-11.793-21.106
			L392.739,87.066z"/>
	</g>
	<g>
		<path fill="#96CA4C" d="M464.132,136.479l2.121-17.357l5.291-60.282l2.638-39.736c10.589,0.11,18.892,0.176,24.954,0.176
			c4.998,0,12.64-0.065,22.927-0.176c0.753,4.935,1.377,8.67,1.893,11.224c0.531,2.545,1.8,7.533,3.819,14.954
			c2.04,7.431,3.656,13.861,4.896,19.252c1.222,5.428,3.077,14.704,5.53,27.821c2.525-8.992,4.822-16.734,6.889-23.211
			c2.066-6.465,4.646-13.83,7.761-22.098c3.096-8.258,5.062-13.648,5.896-16.202c0.826-2.553,1.966-6.465,3.397-11.739
			c8.598,0.11,17.031,0.176,25.278,0.176c5.611,0,13.411-0.065,23.403-0.176c-1.103,19.326-1.819,35.914-2.15,49.794
			c-0.771,27.168-1.119,45.861-1.119,56.054c0,2.112,0.055,5.97,0.155,11.527c-7.56-0.11-12.869-0.172-15.898-0.172
			c-4.418,0-9.829,0.062-16.258,0.172c0.478-5.16,1.048-17.452,1.764-36.849c0.698-19.408,1.048-31.79,1.048-37.181
			c0-2.353-0.073-5.623-0.176-9.811l-11.288,35.004l-16.201,48.836c-7.441-0.11-12.566-0.172-15.377-0.172
			c-3.554,0-9.011,0.062-16.35,0.172l-10.598-47.294l-6.201-25.193c-0.237-0.982-0.469-2.185-0.779-3.619
			c-0.276-1.422-0.734-3.949-1.379-7.56l-2.159,23.819l-2.864,48.845l-0.258,11.003c-7.907-0.11-12.961-0.172-15.136-0.172
			C476.613,136.308,471.452,136.369,464.132,136.479z"/>
		<path fill="#96CA4C" d="M635.321,73.702c1.092-5.667,1.781-9.581,2.076-11.731c0.266-2.156,0.734-5.52,1.369-10.095
			c16.513-3.625,30.694-5.426,42.562-5.426c6.77,0,12.969,0.761,18.572,2.286c5.621,1.508,10.011,3.958,13.181,7.349
			c3.132,3.39,4.72,8.219,4.72,14.53c0,3.214-0.432,10.424-1.295,21.667s-1.524,25.965-1.965,44.198
			c-5.611-0.11-11.205-0.172-16.79-0.172c-5.373,0-11.122,0.062-17.194,0.172c0.781-6.31,1.653-19.313,2.608-39.044
			c-2.185,1.037-3.885,1.782-5.106,2.232c-1.25,0.469-3.398,1.148-6.483,2.077c-3.088,0.917-5.504,1.698-7.257,2.322
			c-1.746,0.634-3.251,1.434-4.538,2.398c-1.285,0.972-2.204,1.974-2.737,3.014c-0.551,1.027-0.827,2.177-0.827,3.445
			c0,1.943,0.771,3.597,2.316,4.976c1.561,1.379,4.022,2.075,7.402,2.075c1.213,0,2.498-0.098,3.877-0.319
			c1.377-0.184,3.27-0.679,5.657-1.477c-1.653,4.398-3.638,10.855-5.926,19.334c-4.931,0.806-9.598,1.211-14.006,1.211
			c-7.118,0-13.033-0.994-17.763-2.975c-4.723-1.968-8.379-5.172-10.922-9.591c-2.545-4.407-3.821-8.826-3.821-13.233
			c0-2.701,0.469-5.34,1.405-7.92c0.955-2.572,2.435-5.097,4.446-7.568c2.003-2.463,4.343-4.575,7.035-6.32
			c2.69-1.737,6.373-3.39,11.04-4.933c4.686-1.551,10.601-3.02,17.763-4.399c2.978-0.561,5.715-1.185,8.194-1.837
			c2.508-0.671,4.28-1.248,5.327-1.727c1.066-0.487,1.93-1.064,2.58-1.727c0.663-0.65,1.13-1.332,1.435-2.058
			c0.284-0.716,0.432-1.477,0.432-2.267c0-2.188-0.919-3.859-2.756-5.043c-1.855-1.176-4.52-1.753-8.073-1.753
			C662.004,65.371,649.824,68.154,635.321,73.702z"/>
		<path fill="#96CA4C" d="M731.285,176.728c1.093-11.756,1.993-23.483,2.746-35.178c1.323-19.993,2.224-36.775,2.709-50.35
			c0.468-13.559,0.736-26.978,0.736-40.276c11.637-1.792,20.739-2.967,27.352-3.564c6.576-0.606,13.181-0.909,19.767-0.909
			c8.257,0,15.861,0.854,22.806,2.58c6.926,1.727,12.511,4.757,16.717,9.11c4.207,4.364,7.366,9.553,9.498,15.562
			c2.111,6.034,3.177,12.325,3.177,18.921c0,6.023-0.845,11.856-2.571,17.505c-1.709,5.651-4.344,10.737-7.908,15.246
			c-3.545,4.546-7.633,7.894-12.234,10.079c-4.611,2.168-9.763,3.269-15.422,3.269c-2.812,0-5.713-0.286-8.727-0.834
			c-3.012-0.544-5.841-1.334-8.56-2.361c-2.683-1.031-4.933-2.079-6.741-3.135c-1.801-1.056-4.041-2.578-6.742-4.599l-0.947,23.999
			c-0.413,11.003-0.605,19.305-0.605,24.936c-6.648-0.127-12.382-0.172-17.148-0.172
			C745.071,176.556,739.082,176.601,731.285,176.728z M770.917,72.847c-0.45,2.582-0.771,4.693-0.937,6.318
			c-0.164,1.637-0.34,3.858-0.514,6.633c-0.185,2.774-0.266,4.996-0.266,6.657c0,4.704,0.734,8.634,2.177,11.832
			c1.479,3.169,3.517,5.641,6.117,7.384c2.608,1.739,5.42,2.64,8.395,2.64c3.141,0,6.043-0.913,8.688-2.721
			c2.627-1.809,4.721-4.501,6.273-8.118c1.553-3.622,2.334-7.689,2.334-12.219c0-6.133-1.626-11.066-4.859-14.796
			c-3.253-3.72-7.965-5.585-14.155-5.585C780.277,70.871,775.86,71.542,770.917,72.847z"/>
	</g>
</g>
</svg>
