<?xml version="1.0" encoding="utf-8"?>
<!-- Generator: Adobe Illustrator 16.0.0, SVG Export Plug-In . SVG Version: 6.00 Build 0)  -->
<!DOCTYPE svg PUBLIC "-//W3C//DTD SVG 1.1//EN" "http://www.w3.org/Graphics/SVG/1.1/DTD/svg11.dtd">
<svg version="1.1" id="Layer_1" xmlns="http://www.w3.org/2000/svg" xmlns:xlink="http://www.w3.org/1999/xlink" x="0px" y="0px"
	 width="595.28px" height="841.89px" viewBox="0 0 595.28 841.89" enable-background="new 0 0 595.28 841.89" xml:space="preserve">
<g>
	<path fill="#96CA4C" d="M238.668,497.673c1.394-0.888,3.038-1.7,4.594-2.769c12.121-8.157,16.823-16.697,21.239-33.032
		c4.594-16.987,16.098-27.768,26.664-40.576c8.141-9.931,6.46-28.185,10.421-42.367c5.572-19.9,11.758-39.673,18.83-59.029
		c5.174-14.109,5.355-28.364-5.407-37.32c-11.033-9.135-24.818,1.431-30.646,8.792c-19.571,24.657-52.191,34.101-66.552,64.237
		c-1.866,4-7.652,5.029-9.659,1.628c-1.83-3.201-1.955-10.221,0.197-12.844c21.127-26.212,38.894-54.813,68.165-74.223
		c15.304-10.148,25.833-30.085,41.279-43.235c4.831-4.09-4.485-12.575-7.902-18.978c-5.842-10.908-12.032-23.517-5.267-35.511
		c7.891-14.111,21.147-19.086,35.493-10.04c15.34,9.677,9.065,26.213,9.336,40.485c0.017,2.787-4.416,6.025,0.036,8.322
		c4.739,2.441,5.749-2.261,8.395-5.102c5.392-5.752,11.487-12.048,18.486-14.887c27.715-11.307,39.801-47.235,21.801-71.71
		c-9.119-12.373-4.562-24.061-3.349-36.288c0.093-1.141,3.996-3.041,5.754-2.587c7.632,1.864,11.758,8.593,13.205,15.359
		c2.711,12.826,3.11,26.176,5.226,39.111c2.084,12.59,3.422,22.503,1.503,35.275c-2.515,14.2-12.193,30.989-22.251,36.814
		c-21.417,12.354-12.825,43.995-11.016,72.18c2.368,36.252,18.253,78.349-19.302,108.885
		c-33.378,27.153-60.421,61.344-86.761,95.354c-0.762,0.993-7.145,7.868-7.87,8.845l281.429-83.359
		c15.812-33.81,26.052-73.79,26.556-113.606C583.356,130.822,453.779,4.064,296.505,4.064
		c-157.258,0-288.757,130.538-284.76,291.432c1.032,43.326,13.098,88.679,31.695,124.045L238.668,497.673z"/>
	<polyline fill="#5A99D0" points="543.505,428.966 245.776,516.884 62.723,452.827 296.448,840.319 	"/>
</g>
</svg>
